<svg viewBox="0 0 67 67" xmlns="http://www.w3.org/2000/svg">
  <symbol id="logo">
    <path fill="currentColor" d="M64.583 4.167A2.083 2.083 0 0 0 62.5 2.083H4.167a2.084 2.084 0 0 0-2.084 2.084V62.5c0 1.151.933 2.083 2.084 2.083H62.5a2.082 2.082 0 0 0 2.083-2.083zm-4.166 56.25V56.25h-6.25v4.167zM16.667 6.25v54.167H50V6.25zM12.5 60.417V56.25H6.25v4.167zm47.917-8.334v-4.166h-6.25v4.166zM12.5 47.917H6.25v4.166h6.25zm29.281-12.85a2.085 2.085 0 0 0 0-3.467l-12.5-8.333A2.084 2.084 0 0 0 26.042 25v16.667a2.082 2.082 0 0 0 3.239 1.733zm18.636 8.683v-4.167h-6.25v4.167zM12.5 39.583H6.25v4.167h6.25zm24.369-6.25-6.661 4.441v-8.881zm23.548 2.084V31.25h-6.25v4.167zM12.5 31.25H6.25v4.167h6.25zm47.917-4.167v-4.166h-6.25v4.166zM12.5 22.917H6.25v4.166h6.25zm47.917-4.167v-4.167h-6.25v4.167zM12.5 14.583H6.25v4.167h6.25zM54.167 6.25v4.167h6.25V6.25zM6.25 10.417h6.25V6.25H6.25z"/>
  </symbol>
</svg>
