<svg xmlns="http://www.w3.org/2000/svg" viewBox="0 0 64 64">
  <symbol id="search">
    <path fill="currentColor" d="M28.3 10.8C17.1 10.8 7.9 20 7.9 31.4 7.9 42.8 17 52 28.3 52c5.2 0 9.9-2 13.5-5.2L43 48l-1.1 1.1c-.6.6-.6 1.6 0 2.2l9 9.1c.3.3.7.5 1.1.5.4 0 .8-.1 1-.5l4-4c.5-.7.5-1.6-.1-2.2l-9-9.1c-.3-.3-.7-.4-1.1-.4-.4 0-.8.1-1 .4l-1 1.1-1.2-1.2c3.2-3.7 5.1-8.4 5.1-13.6 0-11.4-9.2-20.6-20.4-20.6zm0 3.1c9.6 0 17.4 7.9 17.4 17.6 0 9.7-7.8 17.5-17.4 17.5-9.6 0-17.4-7.8-17.4-17.5s7.8-17.6 17.4-17.6zm.1 6.2c-4.8 0-9 3-10.6 7.5-.3.7.1 1.5.7 1.7.1 0 .3.1.5.1.5 0 1-.4 1.3-.9 1.2-3.5 4.5-5.8 8.1-5.8.7 0 1.3-.6 1.3-1.3 0-.7-.6-1.3-1.3-1.3zm-9.5 12.4c-.7 0-1.3.5-1.3 1.3v.2c0 .7.5 1.3 1.3 1.3.7 0 1.3-.6 1.3-1.3v-.2c0-.8-.5-1.3-1.3-1.3zm28 15.8 6.9 7-1.9 1.9-6.9-7 1.9-1.9z"/>
  </symbol>
</svg>
