<svg viewBox="0 0 64 64" data-name="Lovely Valentine's day" id="Lovely_Valentine_s_day" xmlns="http://www.w3.org/2000/svg">
  <defs>
    <style>
      .cls-2{fill:#f6e3a6}.cls-3{fill:#623905}.cls-5{fill:#268484}
    </style>
  </defs>
  <circle cx="32" cy="32" r="28" style="fill:#e29e9a"/>
  <rect class="cls-2" height="22" rx="2" width="26" x="13" y="29"/>
  <path class="cls-3" d="M37 52H15a3 3 0 0 1-3-3V31a3 3 0 0 1 3-3h22a3 3 0 0 1 3 3v18a3 3 0 0 1-3 3ZM15 30a1 1 0 0 0-1 1v18a1 1 0 0 0 1 1h22a1 1 0 0 0 1-1V31a1 1 0 0 0-1-1Z"/>
  <rect height="18" rx="2" transform="rotate(90 26 40)" width="14" x="19" y="31" style="fill:#fff0cc"/>
  <path class="cls-5" d="M39 35h4v10h-4z"/>
  <path class="cls-3" d="M44 46h-6V34h6Zm-4-2h2v-8h-2Z"/>
  <path class="cls-2" d="M48.671 50.041 43 45V35l5.772-4.489A2 2 0 0 1 52 32.089v16.457a2 2 0 0 1-3.329 1.495Z"/>
  <path class="cls-3" d="M49.989 51.552a2.97 2.97 0 0 1-1.982-.764L42 45.449V34.511l6.158-4.789A3 3 0 0 1 53 32.089v16.457a2.968 2.968 0 0 1-1.771 2.737 3.017 3.017 0 0 1-1.24.269Zm-.654-2.258A1 1 0 0 0 51 48.546V32.089a1 1 0 0 0-1.613-.789L44 35.489v9.062Z"/>
  <circle class="cls-5" cx="20" cy="21" r="8"/>
  <path class="cls-3" d="M20 30a9 9 0 1 1 9-9 9.01 9.01 0 0 1-9 9Zm0-16a7 7 0 1 0 7 7 7.009 7.009 0 0 0-7-7Z"/>
  <circle class="cls-5" cx="20" cy="21" r="5"/>
  <path class="cls-3" d="M20 27a6 6 0 1 1 6-6 6.006 6.006 0 0 1-6 6Zm0-10a4 4 0 1 0 4 4 4 4 0 0 0-4-4Z"/>
  <circle class="cls-5" cx="34" cy="23" r="6"/>
  <path class="cls-3" d="M34 30a7 7 0 1 1 7-7 7.009 7.009 0 0 1-7 7Zm0-12a5 5 0 1 0 5 5 5.006 5.006 0 0 0-5-5Z"/>
  <circle class="cls-5" cx="34" cy="23" r="3"/>
  <path class="cls-3" d="M34 27a4 4 0 1 1 4-4 4 4 0 0 1-4 4Zm0-6a2 2 0 1 0 2 2 2 2 0 0 0-2-2Z"/>
  <path d="M21.081 38.609a2.569 2.569 0 0 0 .766 1.844l1.845 1.847 1.9 1.9a1.3 1.3 0 0 0 1.846 0l1.9-1.9 1.743-1.744a2.708 2.708 0 0 0 .387-3.454 2.612 2.612 0 0 0-3.975-.336l-.975.974-.861-.861a2.737 2.737 0 0 0-3.3-.5 2.573 2.573 0 0 0-1.276 2.23Z" style="fill:#842835"/>
  <path class="cls-3" d="M26.512 45.583a2.287 2.287 0 0 1-1.632-.677l-3.74-3.746a3.6 3.6 0 0 1 .7-5.642 3.706 3.706 0 0 1 4.519.652l.155.154.267-.267a3.611 3.611 0 0 1 5.494.459 3.718 3.718 0 0 1-.491 4.746l-3.638 3.644a2.288 2.288 0 0 1-1.634.677Zm-2.875-8.556a1.509 1.509 0 0 0-.773.206 1.6 1.6 0 0 0-.316 2.507l3.752 3.754a.266.266 0 0 0 .431 0l3.64-3.646a1.7 1.7 0 0 0 .282-2.164 1.607 1.607 0 0 0-1.187-.679 1.644 1.644 0 0 0-1.27.466l-.974.974a1 1 0 0 1-1.414 0l-.862-.861a1.869 1.869 0 0 0-1.309-.557Z"/>
</svg>
